<?xml version="1.0" encoding="UTF-8"?>
<!-- Created with Inkscape (http://www.inkscape.org/) -->
<svg width="210mm" height="297mm" version="1.1" viewBox="0 0 210 297" xmlns="http://www.w3.org/2000/svg">
 <defs>
  <filter id="filter4624" x="-.0112" y="-.012923" width="1.0224" height="1.0258" color-interpolation-filters="sRGB">
   <feGaussianBlur stdDeviation="0.33675961"/>
  </filter>
 </defs>
 <path d="m543.67 80.387c43.292-4.5914 94.525 6.4734 133.8 27.97 34.305 70.417 0.89017 114.01-8.3155 169.33 1.4326-50.992 4.2098-103.33-25.702-140.61-19.157-23.231-60.514-39.5-99.786-56.696z" fill="#ff7f2a" stroke="#000" stroke-width=".26458px"/>
 <path d="m577.63 163.53c-18.299 7.029-33.808 13.178-34.018 36.286-2.7969 26.39 10.903 39.088 30.238 45.357 19.476-5.7013 34.542-20.096 34.018-37.798 2.1174-19.783-10.392-32.049-30.238-43.845z" fill="none" stroke="#000" stroke-width=".26458px"/>
 <g fill="#ff7f2a">
  <g stroke-width=".50508"></g>
  <path d="m607.63 211.82c0.16708-2.2079 0.35491-7.1209 0.36019-9.4212 6e-3 -2.5364 6e-3 -2.5374 0.12006-1.0023 0.0628 0.84524 0.0829 1.9878 0.0447 2.5391-0.0382 0.55124-0.13385 2.4756-0.21245 4.2763s-0.19586 3.5447-0.26058 3.8754c-0.1035 0.52897-0.10975 0.4968-0.0519-0.26727z" stroke-width=".13363"/>
  <path d="m571.4 244.11c-3.5488-1.3116-6.4192-2.6275-9.0954-4.1697-12.554-7.2344-18.748-18.142-18.814-33.131-0.0124-2.8004 0.051-4.162 0.46848-10.072 0.70876-10.034 4.7523-17.389 12.622-22.959 4.4114-3.1224 9.4414-5.5454 20.005-9.6368l1.0368-0.40157 2.1704 1.3347c17.32 10.651 25.674 20.484 27.679 32.581 0.28775 1.7357 0.52354 5.343 0.42366 6.4813-0.0451 0.51449-0.13926 2.3486-0.20915 4.0759-0.23166 5.7259-1.0228 8.9996-3.2781 13.564-4.8567 9.8294-14.977 17.902-28.048 22.373-1.3067 0.44697-2.4448 0.81039-2.5292 0.8076-0.0844-3e-3 -1.1787-0.38401-2.4319-0.84715z" stroke-width=".13363"/>
 </g>
 <path d="m473.82 112.8 51.85 7.4836 20.312 25.123v25.123l-25.123 4.8108-28.865-15.502z" fill="none" filter="url(#filter4624)" opacity=".97" stroke="#000" stroke-width=".26458px"/>
 <g fill="#d4ff2a">
  <g fill-opacity=".99517">
   <circle cx="-270.21" cy="25.187" r="111.45" marker-start="" opacity=".97"/>
   <circle cx="-270.21" cy="25.187" r="111.45" marker-start="" opacity=".97"/>
   <circle cx="-270.21" cy="25.187" r="111.45" marker-start="" opacity=".97"/>
   <circle cx="-270.21" cy="25.187" r="111.45" marker-start="" opacity=".97"/>
   <circle cx="-270.21" cy="25.187" r="111.45" marker-start="" opacity=".97"/>
   <circle cx="-270.21" cy="25.187" r="111.45" marker-start="" opacity=".97"/>
   <circle cx="-270.21" cy="25.187" r="111.45" marker-start="" opacity=".97"/>
   <circle cx="-270.21" cy="25.187" r="111.45" marker-start="" opacity=".97"/>
   <circle cx="-270.21" cy="25.187" r="111.45" marker-start="" opacity=".97"/>
   <circle cx="-270.21" cy="25.187" r="111.45" marker-start="" opacity=".97"/>
   <circle cx="-270.21" cy="25.187" r="111.45" marker-start="" opacity=".97"/>
   <circle cx="-270.21" cy="25.187" r="111.45" marker-start="" opacity=".97"/>
  </g>
  <g fill-opacity=".99517">
   <circle cx="-726.92" cy="-149.2" r="111.45" opacity=".97"/>
   <circle cx="-726.92" cy="-149.2" r="111.45" opacity=".97"/>
   <circle cx="-726.92" cy="-149.2" r="111.45" opacity=".97"/>
   <circle cx="-726.92" cy="-149.2" r="111.45" opacity=".97"/>
   <circle cx="-726.92" cy="-149.2" r="111.45" opacity=".97"/>
   <circle cx="-726.92" cy="-149.2" r="111.45" opacity=".97"/>
   <circle cx="-726.92" cy="-149.2" r="111.45" opacity=".97"/>
   <circle cx="-726.92" cy="-149.2" r="111.45" opacity=".97"/>
   <circle cx="-726.92" cy="-149.2" r="111.45" opacity=".97"/>
   <circle cx="-726.92" cy="-149.2" r="111.45" opacity=".97"/>
   <circle cx="-726.92" cy="-149.2" r="111.45" opacity=".97"/>
   <circle cx="-726.92" cy="-149.2" r="111.45" opacity=".97"/>
   <path d="m-584.03-149.2c0 61.553-81.329 111.45-142.88 111.45s-144.38-49.898-144.38-111.45 82.826-111.45 144.38-111.45 142.88 49.898 142.88 111.45z" opacity=".97" stroke="#000" stroke-width=".52917"/>
  </g>
 </g>
 <g transform="matrix(1 0 0 1.5556 -31.774 -112.6)">
  <circle cx="-647.19" cy="-27.032" r="51.858" fill="#d4ff29" opacity=".97"/>
  <circle cx="-647.7" cy="-25.167" r="34.798" fill="#f9f9f9" opacity=".97"/>
 </g>
 <g transform="matrix(1 0 0 1.5556 -132.05 -111.48)">
  <circle cx="-647.19" cy="-27.032" r="51.858" fill="#d4ff29" opacity=".97"/>
  <circle cx="-647.7" cy="-25.167" r="34.798" fill="#f9f9f9" opacity=".97"/>
 </g>
 <path d="m-827.32 30.89c-18.17 13.716-13.247 22.6-2.2946 22.782 25.895-5.4713 71.844-21.558 104.4-21.307 33.424-1.0031 59.92 5.5658 91.619 18.357 13.389 4.1386 15.62 3.7985 19.371-0.1661 4.884-5.1626-6.4124-17.003-16.093-22.452-33.09-16.053-56.785-23.941-95.061-24.913-30.002 1.2718-65.929 9.0032-101.95 27.699z" fill="#d4ff29" fill-opacity=".97255" stroke="#000" stroke-width=".46358px"/>
 <path d="m-823.65 39.357c33.053-10.664 66.105-21.328 98.284-21.048s63.485 11.506 94.791 22.731" fill="none" stroke="#000" stroke-width="1.5875"/>
 <g fill="#d4ff29">
  <ellipse cx="-727.24" cy="-39.782" rx="72.216" ry="92.796" opacity=".97" stroke="#000" stroke-width=".52917"/>
  <ellipse cx="-714.14" cy="-55.497" rx="3.7418" ry="5.9868" opacity=".97"/>
  <ellipse cx="-728.36" cy="-86.18" rx="26.941" ry=".74835" opacity=".97"/>
 </g>
 <g transform="translate(267.16 -8.2319)">
  <circle cx="-647.19" cy="-27.032" r="51.858" fill="#d4ff29" opacity=".97"/>
  <circle cx="-647.7" cy="-25.167" r="34.798" fill="#f9f9f9" opacity=".97"/>
 </g>
 <circle cx="-368.19" cy="-44.25" r="17.212" opacity=".97"/>
 <ellipse cx="-362.95" cy="-49.862" rx="6.7352" ry="4.8643" fill="#fff" opacity=".97"/>
 <g transform="translate(488.54 -8.9863)">
  <circle cx="-647.19" cy="-27.032" r="51.858" fill="#d4ff29" opacity=".97"/>
  <circle cx="-647.7" cy="-25.167" r="34.798" fill="#f9f9f9" opacity=".97"/>
 </g>
 <circle cx="-148.17" cy="-44.25" r="17.212" opacity=".97"/>
 <ellipse cx="-142.19" cy="-50.985" rx="6.7352" ry="4.8643" fill="#fff" opacity=".97"/>
 <ellipse cx="-778.87" cy="-149.04" rx="17.586" ry="35.921" opacity=".97"/>
 <ellipse cx="-677.47" cy="-151.29" rx="17.586" ry="35.921" opacity=".97"/>
 <ellipse cx="-763.16" cy="-158.02" rx="7.1094" ry="13.47" fill-opacity="0" opacity=".97"/>
 <g fill="#fff">
  <ellipse cx="-766.53" cy="-164.01" rx="5.9868" ry="12.722" opacity=".97"/>
  <ellipse cx="-665.5" cy="-166.25" rx="5.9868" ry="12.722" opacity=".97"/>
  <path d="m-674.48-103.48c-6.6934-9.9402-20.615-21.119-31.254-25.096-6.2773-2.3467-6.2485-2.293-7.7137-14.38-2.369-19.543 3.5267-41.153 14.398-52.775 15.349-16.408 35.436-11.666 46.594 10.999 5.0125 10.182 6.5204 16.733 6.9657 30.262 0.28974 8.8016 0.0925 12.704-0.88879 17.586-3.3339 16.589-10.388 28.653-20.577 35.196-1.8299 1.1749-3.682 2.1274-4.1159 2.1168-0.43392-0.01061-1.9676-1.7697-3.4082-3.909zm4.6025-15.237c3.7727-3.649 6.2985-8.539 8.2087-15.892 1.5996-6.1578 2.7013-20.291 1.847-23.695l-0.52234-2.0811-1.2682 2.4843c-2.537 4.9698-5.3217 4.8742-7.8823-0.27071-1.9349-3.8876-1.8639-11.979 0.14502-16.52 0.83635-1.8907 1.8764-3.4377 2.3111-3.4377 3.259 0-3.3691-7.6672-7.6429-8.8411-7.9093-2.1725-15.132 5.4373-19.045 20.066-1.9359 7.237-1.7356 24.567 0.37322 32.295 2.0054 7.3485 4.6433 12.517 8.0085 15.691 3.4756 3.2782 4.5262 3.6781 8.8545 3.3696 2.9939-0.21336 4.1109-0.74855 6.6128-3.1683z" opacity=".97"/>
  <path d="m-675.3-104.61c-8.3994-10.735-20.671-20.335-30.853-24.134-5.8867-2.1969-5.9629-2.3543-7.3623-15.211-2.7392-25.165 7.7401-51.077 23.868-59.017 13.755-6.7718 28.558 0.49652 37.202 18.267 5.6743 11.665 6.6664 16.575 6.6954 33.136 0.0235 13.443-0.0879 14.586-2.0437 20.954-2.9392 9.5697-6.6866 16.734-11.583 22.145-3.717 4.1074-9.8832 8.912-11.438 8.912-0.29345 0-2.3121-2.2731-4.4858-5.0514zm2.245-11.748c4.9136-2.5409 9.0339-9.1541 11.368-18.246 1.599-6.2281 2.7118-20.341 1.8686-23.7l-0.52377-2.0868-1.2682 2.4843c-3.8374 7.5172-9.1382 2.7132-9.1083-8.2547 0.0154-5.6772 1.9546-11.974 3.6876-11.974 2.2115 0-1.2037-5.2438-4.905-7.5313-3.074-1.8998-8.0288-1.88-11.143 0.0445-4.2341 2.6168-8.1211 9.4935-10.624 18.794-1.7772 6.6054-1.7573 23.7 0.036 30.975 3.8411 15.581 12.444 23.719 20.611 19.495z" opacity=".97"/>
  <path d="m-790.3-99.584c-12.294-6.1436-21.06-22.169-23.471-42.91-2.397-20.621 4.9348-44.539 16.788-54.767 5.9296-5.1165 9.8374-6.6518 16.982-6.6719 5.4198-0.0153 6.97 0.2813 10.477 2.0044 10.787 5.3003 19.243 18.641 22.77 35.925 1.5326 7.5099 1.529 22.265-7e-3 30.637l-1.1876 6.4707-3.165 1.2087c-8.9726 3.4267-22.96 15.375-29.636 25.315-1.8522 2.758-3.7348 5.0251-4.1835 5.0382-0.44874 0.01302-2.8639-0.9997-5.367-2.2505zm16.76-14.877c7.43-4.5306 12.247-18.126 12.247-34.564v-8.3741l-1.7101 2.5376c-2.0109 2.984-3.8447 3.5451-5.8009 1.7748-4.3534-3.9398-4.0262-19.144 0.48522-22.552 1.4384-1.0864 0.70673-2.6142-2.9241-6.1064-6.8649-6.6027-15.434-3.2816-20.63 7.9954-3.1917 6.927-4.5926 14.403-4.5926 24.51 0 20.949 7.4118 36.209 17.586 36.209 1.6464 0 4.0489-0.64359 5.3389-1.4302z" opacity=".97"/>
  <path d="m-790.33-99.602c-15.659-7.8251-26.208-34.082-23.488-58.464 1.2104-10.851 2.7216-16.306 6.9544-25.107 4.2702-8.8782 9.7981-15.15 16.398-18.606 3.5791-1.874 4.9265-2.1521 10.469-2.1613 8.4871-0.014 13 2.1327 19.702 9.3707 5.5233 5.9657 9.2214 12.91 12.141 22.798 2.7106 9.1809 3.3888 25.311 1.5042 35.777l-1.2768 7.0913-3.1259 1.1962c-8.2834 3.1699-23.979 16.659-30.067 25.841-1.6464 2.4829-3.3606 4.5237-3.8093 4.5351-0.44874 0.01138-2.8796-1.0106-5.402-2.2711zm17.145-15.127c3.6294-2.4318 7.0758-7.9564 9.3666-15.015 1.6557-5.1018 2.0399-7.8904 2.3363-16.957l0.35473-10.851-1.7938 2.6192c-2.2463 3.28-4.6869 3.4596-6.8919 0.50695-2.3571-3.1562-2.6766-13.245-0.57028-18.007 0.84034-1.8997 1.8836-3.454 2.3183-3.454 1.3791 0 0.8622-1.3629-1.5657-4.1281-9.7389-11.092-21.67-2.9718-25.759 17.531-1.877 9.4118-1.2022 24.515 1.4628 32.74 4.5809 14.137 12.979 20.216 20.742 15.015z" opacity=".97"/>
  <ellipse cx="-789.35" cy="-121.35" rx="2.6192" ry="5.2385" opacity=".97"/>
  <ellipse cx="-524.6" cy="-155.01" rx="2.6192" ry="5.2385" opacity=".97"/>
  <ellipse cx="-687.95" cy="-124.35" rx="2.6192" ry="5.2385" opacity=".97"/>
 </g>
 <g fill-opacity=".97255">
  <path d="m-340.78-87.175c-1e-5 4.0915-18.716 7.4083-41.804 7.4083-23.088 0-45.508 3.0332-45.508-1.0583 1e-5 -4.0915 18.716-7.4083 41.804-7.4083 23.088 0 45.508-3.0332 45.508 1.0583z" opacity=".97" stroke="#000" stroke-width="1.5875"/>
  <path d="m-128.87-91.241c-12.171 4.676-4.2594 0.82812-22.49 7.9375-18.379 7.1673-35.719-3.7906-35.719-8.4667s22.178 6.2986 40.481-1.0583c100.58-40.429 26.333-1.2176 17.727 1.5875z" opacity=".97" stroke="#000" stroke-width="1.5875"/>
  <path d="m-223.76 102.24c-1e-5 14.776-14.507 11.038-42.095 11.038s-41.333 6.2679-45.837-11.412c-4.5037-17.68 18.249-42.095 45.837-42.095s42.095 27.693 42.095 42.469z" fill="#8f0000" opacity=".97"/>
  <path d="m-246.58 110.47c0 5.2696-8.9681 2.4322-20.954 2.4322-11.986 0-22.451 2.8375-22.451-2.4322s9.7164-9.5415 21.702-9.5415 21.702 4.2719 21.702 9.5415z" fill="#f00" opacity=".97"/>
 </g>
 <g fill-opacity=".99517">
  <path d="m-267 60.066c25.329 2.1501 64.308-9.7214 78.069-26.823 1.3654 12.043-10.545 31.799-29.784 36.241-22.027 3.0779-35.636-3.196-48.285-9.4178z" stroke="#000" stroke-width=".27821px"/>
  <path d="m-267 60.066c-25.329 2.1501-61.662-9.7214-75.423-26.823-1.3654 12.043 12.397 31.799 31.636 36.241 22.027 3.0779 31.138-3.196 43.787-9.4178z" stroke="#000" stroke-width=".27821px"/>
  <ellipse cx="-279.4" cy="43.397" rx="1.5875" ry="4.6302" opacity=".97"/>
  <ellipse cx="-257.17" cy="42.735" rx="1.5875" ry="4.6302" opacity=".97"/>
 </g>
 <g fill="#d4ff2a" fill-opacity=".99517">
  <circle cx="-726.92" cy="-149.2" r="111.45" opacity=".97"/>
  <circle cx="-726.92" cy="-149.2" r="111.45" opacity=".97"/>
  <circle cx="-726.92" cy="-149.2" r="111.45" opacity=".97"/>
  <circle cx="-726.92" cy="-149.2" r="111.45" opacity=".97"/>
  <circle cx="-726.92" cy="-149.2" r="111.45" opacity=".97"/>
  <circle cx="-726.92" cy="-149.2" r="111.45" opacity=".97"/>
  <circle cx="-726.92" cy="-149.2" r="111.45" opacity=".97"/>
  <circle cx="-726.92" cy="-149.2" r="111.45" opacity=".97"/>
  <circle cx="-726.92" cy="-149.2" r="111.45" opacity=".97"/>
  <circle cx="-726.92" cy="-149.2" r="111.45" opacity=".97"/>
  <circle cx="-726.92" cy="-149.2" r="111.45" opacity=".97"/>
  <circle cx="-726.92" cy="-149.2" r="111.45" opacity=".97"/>
  <path d="m-584.03-149.2c0 61.553-81.329 111.45-142.88 111.45s-144.38-49.898-144.38-111.45 82.826-111.45 144.38-111.45 142.88 49.898 142.88 111.45z" opacity=".97" stroke="#000" stroke-width=".52917"/>
 </g>
 <g transform="matrix(1 0 0 1.5556 -31.774 -112.6)">
  <circle cx="-647.19" cy="-27.032" r="51.858" fill="#d4ff29" opacity=".97"/>
  <circle cx="-647.7" cy="-25.167" r="34.798" fill="#f9f9f9" opacity=".97"/>
 </g>
 <g transform="matrix(1 0 0 1.5556 -132.05 -111.48)">
  <circle cx="-647.19" cy="-27.032" r="51.858" fill="#d4ff29" opacity=".97"/>
  <circle cx="-647.7" cy="-25.167" r="34.798" fill="#f9f9f9" opacity=".97"/>
 </g>
 <g stroke="#000">
  <path d="m-827.32 30.89c-18.17 13.716-13.247 22.6-2.2946 22.782 25.895-5.4713 71.844-21.558 104.4-21.307 33.424-1.0031 59.92 5.5658 91.619 18.357 13.389 4.1386 15.62 3.7985 19.371-0.1661 4.884-5.1626-6.4124-17.003-16.093-22.452-33.09-16.053-56.785-23.941-95.061-24.913-30.002 1.2718-65.929 9.0032-101.95 27.699z" fill="#d4ff29" fill-opacity=".97255" stroke-width=".46358px"/>
  <g>
   <path d="m-823.65 39.357c33.053-10.664 66.105-21.328 98.284-21.048s63.485 11.506 94.791 22.731" fill="none" stroke-width="1.5875"/>
   <path d="m-585.21 243.12c15.737 18.535 34.604 43.865 51.636 74.835 0 0-40.132 92.721-75.584 129.47 2.7264 10.815 5.7629 21.528 20.206 28.438 10.682 4.7651 18.878-2.8971 27.689-7.4836-1.6344 20.838-12.092 39.029-33.676 53.882-16.471-8.8838-30.025-18.862-30.683-33.676-0.56312-17.462 0.32065-34.923 3.7418-52.385l47.895-109.26c-16.496-17.773-29.142-38.112-39.663-59.868z" fill="#d4ff29" fill-opacity=".97255" stroke-width="1.0583"/>
   <path d="m-641.34 171.28 72.59 74.087c-10.542 19.142-28.954 30.416-49.391 39.663l-23.199-53.882z" fill="#f60" opacity=".97" stroke-width="1.5875"/>
   <path d="m-862.73 243.12c-15.737 18.535-34.604 43.865-51.636 74.835 0 0 40.132 92.721 75.584 129.47-2.7264 10.815-5.7629 21.528-20.206 28.438-10.682 4.7651-18.878-2.8971-27.689-7.4836 1.6344 20.838 12.092 39.029 33.676 53.882 16.471-8.8838 30.025-18.862 30.683-33.676 0.56312-17.462-0.32065-34.923-3.7418-52.385l-47.895-109.26c16.496-17.773 29.142-38.112 39.663-59.868z" fill="#d4ff29" fill-opacity=".97255" stroke-width="1.0583"/>
   <path d="m-885.3 243.12 82.319-71.842v59.868l-27.689 53.882c-23.816-9.4844-40.758-24.468-54.63-41.908z" fill="#f60" opacity=".97" stroke-width="1.5875"/>
   <path d="m-802.98 171.28c-6.6356 4.2138 54.66-44.199 161.64 0l19.457 264.92c-69.464 10.862-138.32 13.235-205.8-3.7418z" fill="#f60" opacity=".97" stroke-width="1.5875"/>
  </g>
 </g>
 <g fill="#d4ff29">
  <path d="m-749.3 34.004h51.329l1.0583 173.04c-5.0618 16.699-15.22 24.904-26.194 31.75-16.407-8.0375-23.726-18.672-26.194-30.692z" opacity=".97" stroke="#000" stroke-width="1.5875"/>
  <ellipse cx="-727.24" cy="-39.782" rx="72.216" ry="92.796" opacity=".97" stroke="#000" stroke-width=".52917"/>
  <ellipse cx="-714.14" cy="-55.497" rx="3.7418" ry="5.9868" opacity=".97"/>
  <ellipse cx="-728.36" cy="-86.18" rx="26.941" ry=".74835" opacity=".97"/>
 </g>
 <ellipse cx="-778.87" cy="-149.04" rx="17.586" ry="35.921" opacity=".97"/>
 <ellipse cx="-677.47" cy="-151.29" rx="17.586" ry="35.921" opacity=".97"/>
 <ellipse cx="-763.16" cy="-158.02" rx="7.1094" ry="13.47" fill-opacity="0" opacity=".97"/>
 <g fill="#fff">
  <ellipse cx="-766.53" cy="-164.01" rx="5.9868" ry="12.722" opacity=".97"/>
  <ellipse cx="-665.5" cy="-166.25" rx="5.9868" ry="12.722" opacity=".97"/>
  <path d="m-674.48-103.48c-6.6934-9.9402-20.615-21.119-31.254-25.096-6.2773-2.3467-6.2485-2.293-7.7137-14.38-2.369-19.543 3.5267-41.153 14.398-52.775 15.349-16.408 35.436-11.666 46.594 10.999 5.0125 10.182 6.5204 16.733 6.9657 30.262 0.28974 8.8016 0.0925 12.704-0.88879 17.586-3.3339 16.589-10.388 28.653-20.577 35.196-1.8299 1.1749-3.682 2.1274-4.1159 2.1168-0.43392-0.01061-1.9676-1.7697-3.4082-3.909zm4.6025-15.237c3.7727-3.649 6.2985-8.539 8.2087-15.892 1.5996-6.1578 2.7013-20.291 1.847-23.695l-0.52234-2.0811-1.2682 2.4843c-2.537 4.9698-5.3217 4.8742-7.8823-0.27071-1.9349-3.8876-1.8639-11.979 0.14502-16.52 0.83635-1.8907 1.8764-3.4377 2.3111-3.4377 3.259 0-3.3691-7.6672-7.6429-8.8411-7.9093-2.1725-15.132 5.4373-19.045 20.066-1.9359 7.237-1.7356 24.567 0.37322 32.295 2.0054 7.3485 4.6433 12.517 8.0085 15.691 3.4756 3.2782 4.5262 3.6781 8.8545 3.3696 2.9939-0.21336 4.1109-0.74855 6.6128-3.1683z" opacity=".97"/>
  <path d="m-675.3-104.61c-8.3994-10.735-20.671-20.335-30.853-24.134-5.8867-2.1969-5.9629-2.3543-7.3623-15.211-2.7392-25.165 7.7401-51.077 23.868-59.017 13.755-6.7718 28.558 0.49652 37.202 18.267 5.6743 11.665 6.6664 16.575 6.6954 33.136 0.0235 13.443-0.0879 14.586-2.0437 20.954-2.9392 9.5697-6.6866 16.734-11.583 22.145-3.717 4.1074-9.8832 8.912-11.438 8.912-0.29345 0-2.3121-2.2731-4.4858-5.0514zm2.245-11.748c4.9136-2.5409 9.0339-9.1541 11.368-18.246 1.599-6.2281 2.7118-20.341 1.8686-23.7l-0.52377-2.0868-1.2682 2.4843c-3.8374 7.5172-9.1382 2.7132-9.1083-8.2547 0.0154-5.6772 1.9546-11.974 3.6876-11.974 2.2115 0-1.2037-5.2438-4.905-7.5313-3.074-1.8998-8.0288-1.88-11.143 0.0445-4.2341 2.6168-8.1211 9.4935-10.624 18.794-1.7772 6.6054-1.7573 23.7 0.036 30.975 3.8411 15.581 12.444 23.719 20.611 19.495z" opacity=".97"/>
  <path d="m-790.3-99.584c-12.294-6.1436-21.06-22.169-23.471-42.91-2.397-20.621 4.9348-44.539 16.788-54.767 5.9296-5.1165 9.8374-6.6518 16.982-6.6719 5.4198-0.0153 6.97 0.2813 10.477 2.0044 10.787 5.3003 19.243 18.641 22.77 35.925 1.5326 7.5099 1.529 22.265-7e-3 30.637l-1.1876 6.4707-3.165 1.2087c-8.9726 3.4267-22.96 15.375-29.636 25.315-1.8522 2.758-3.7348 5.0251-4.1835 5.0382-0.44874 0.01302-2.8639-0.9997-5.367-2.2505zm16.76-14.877c7.43-4.5306 12.247-18.126 12.247-34.564v-8.3741l-1.7101 2.5376c-2.0109 2.984-3.8447 3.5451-5.8009 1.7748-4.3534-3.9398-4.0262-19.144 0.48522-22.552 1.4384-1.0864 0.70673-2.6142-2.9241-6.1064-6.8649-6.6027-15.434-3.2816-20.63 7.9954-3.1917 6.927-4.5926 14.403-4.5926 24.51 0 20.949 7.4118 36.209 17.586 36.209 1.6464 0 4.0489-0.64359 5.3389-1.4302z" opacity=".97"/>
  <path d="m-790.33-99.602c-15.659-7.8251-26.208-34.082-23.488-58.464 1.2104-10.851 2.7216-16.306 6.9544-25.107 4.2702-8.8782 9.7981-15.15 16.398-18.606 3.5791-1.874 4.9265-2.1521 10.469-2.1613 8.4871-0.014 13 2.1327 19.702 9.3707 5.5233 5.9657 9.2214 12.91 12.141 22.798 2.7106 9.1809 3.3888 25.311 1.5042 35.777l-1.2768 7.0913-3.1259 1.1962c-8.2834 3.1699-23.979 16.659-30.067 25.841-1.6464 2.4829-3.3606 4.5237-3.8093 4.5351-0.44874 0.01138-2.8796-1.0106-5.402-2.2711zm17.145-15.127c3.6294-2.4318 7.0758-7.9564 9.3666-15.015 1.6557-5.1018 2.0399-7.8904 2.3363-16.957l0.35473-10.851-1.7938 2.6192c-2.2463 3.28-4.6869 3.4596-6.8919 0.50695-2.3571-3.1562-2.6766-13.245-0.57028-18.007 0.84034-1.8997 1.8836-3.454 2.3183-3.454 1.3791 0 0.8622-1.3629-1.5657-4.1281-9.7389-11.092-21.67-2.9718-25.759 17.531-1.877 9.4118-1.2022 24.515 1.4628 32.74 4.5809 14.137 12.979 20.216 20.742 15.015z" opacity=".97"/>
  <ellipse cx="-789.35" cy="-121.35" rx="2.6192" ry="5.2385" opacity=".97"/>
  <ellipse cx="-687.95" cy="-124.35" rx="2.6192" ry="5.2385" opacity=".97"/>
 </g>
 <g fill="#d4ff2a" fill-opacity=".99517">
  <circle cx="188.07" cy="-696.97" r="111.45" opacity=".97"/>
  <circle cx="188.07" cy="-696.97" r="111.45" opacity=".97"/>
  <circle cx="188.07" cy="-696.97" r="111.45" opacity=".97"/>
  <circle cx="188.07" cy="-696.97" r="111.45" opacity=".97"/>
  <circle cx="188.07" cy="-696.97" r="111.45" opacity=".97"/>
  <circle cx="188.07" cy="-696.97" r="111.45" opacity=".97"/>
  <circle cx="188.07" cy="-696.97" r="111.45" opacity=".97"/>
  <circle cx="188.07" cy="-696.97" r="111.45" opacity=".97"/>
  <circle cx="188.07" cy="-696.97" r="111.45" opacity=".97"/>
  <circle cx="188.07" cy="-696.97" r="111.45" opacity=".97"/>
  <circle cx="188.07" cy="-696.97" r="111.45" opacity=".97"/>
  <circle cx="188.07" cy="-696.97" r="111.45" opacity=".97"/>
  <path d="m330.96-696.97c0 61.553-81.329 111.45-142.88 111.45s-144.38-49.898-144.38-111.45c0-61.553 82.826-111.45 144.38-111.45s142.88 49.898 142.88 111.45z" opacity=".97" stroke="#000" stroke-width=".52917"/>
 </g>
 <g transform="matrix(1 0 0 1.5556 883.22 -660.37)">
  <circle cx="-647.19" cy="-27.032" r="51.858" fill="#d4ff29" opacity=".97"/>
  <circle cx="-647.7" cy="-25.167" r="34.798" fill="#f9f9f9" opacity=".97"/>
 </g>
 <g transform="matrix(1 0 0 1.5556 782.94 -659.25)">
  <circle cx="-647.19" cy="-27.032" r="51.858" fill="#d4ff29" opacity=".97"/>
  <circle cx="-647.7" cy="-25.167" r="34.798" fill="#f9f9f9" opacity=".97"/>
 </g>
 <path d="m87.666-516.87c-18.17 13.716-13.247 22.6-2.2946 22.782 25.895-5.4713 71.844-21.558 104.4-21.307 33.424-1.0031 59.92 5.5658 91.619 18.357 13.389 4.1386 15.62 3.7985 19.371-0.16611 4.884-5.1626-6.4124-17.003-16.093-22.452-33.09-16.053-56.785-23.941-95.061-24.913-30.002 1.2718-65.929 9.0032-101.95 27.699z" fill="#d4ff29" fill-opacity=".97255" stroke="#000" stroke-width=".46358px"/>
 <path d="m91.338-508.41c33.053-10.664 66.105-21.328 98.284-21.047s63.485 11.506 94.791 22.731" fill="none" stroke="#000" stroke-width="1.5875"/>
 <g fill="#d4ff29">
  <ellipse cx="187.75" cy="-587.55" rx="72.216" ry="92.796" opacity=".97" stroke="#000" stroke-width=".52917"/>
  <ellipse cx="200.85" cy="-603.26" rx="3.7418" ry="5.9868" opacity=".97"/>
  <ellipse cx="186.63" cy="-633.94" rx="26.941" ry=".74835" opacity=".97"/>
 </g>
 <ellipse cx="136.12" cy="-696.81" rx="17.586" ry="35.921" opacity=".97"/>
 <ellipse cx="237.52" cy="-699.05" rx="17.586" ry="35.921" opacity=".97"/>
 <ellipse cx="151.83" cy="-705.79" rx="7.1094" ry="13.47" fill-opacity="0" opacity=".97"/>
 <g fill="#fff">
  <ellipse cx="148.46" cy="-711.77" rx="5.9868" ry="12.722" opacity=".97"/>
  <ellipse cx="249.49" cy="-714.02" rx="5.9868" ry="12.722" opacity=".97"/>
  <path d="m240.51-651.25c-6.6934-9.9402-20.615-21.119-31.254-25.096-6.2773-2.3467-6.2485-2.293-7.7137-14.38-2.369-19.543 3.5267-41.153 14.398-52.775 15.349-16.408 35.436-11.666 46.594 10.999 5.0125 10.182 6.5204 16.733 6.9657 30.262 0.28974 8.8016 0.0925 12.704-0.88879 17.586-3.3339 16.589-10.388 28.653-20.577 35.196-1.8299 1.1749-3.682 2.1274-4.1159 2.1168-0.43392-0.0106-1.9676-1.7697-3.4082-3.909zm4.6025-15.237c3.7727-3.649 6.2985-8.539 8.2087-15.892 1.5996-6.1578 2.7013-20.291 1.847-23.695l-0.52234-2.0811-1.2682 2.4843c-2.537 4.9698-5.3217 4.8742-7.8823-0.27071-1.9349-3.8876-1.8639-11.979 0.14502-16.52 0.83635-1.8907 1.8764-3.4377 2.3111-3.4377 3.259 0-3.3691-7.6672-7.6429-8.8411-7.9093-2.1725-15.132 5.4373-19.045 20.066-1.9359 7.237-1.7356 24.567 0.37322 32.295 2.0054 7.3485 4.6433 12.517 8.0085 15.691 3.4756 3.2782 4.5262 3.6781 8.8545 3.3696 2.9939-0.21336 4.1109-0.74855 6.6128-3.1683z" opacity=".97"/>
  <path d="m239.69-652.37c-8.3994-10.735-20.671-20.335-30.853-24.134-5.8867-2.1969-5.9629-2.3543-7.3623-15.211-2.7392-25.165 7.7401-51.077 23.868-59.017 13.755-6.7718 28.558 0.49652 37.202 18.267 5.6743 11.665 6.6664 16.575 6.6954 33.136 0.0235 13.443-0.0879 14.586-2.0437 20.954-2.9392 9.5697-6.6866 16.734-11.583 22.145-3.717 4.1074-9.8832 8.912-11.438 8.912-0.29345 0-2.3121-2.2731-4.4858-5.0514zm2.245-11.748c4.9136-2.5409 9.0339-9.1541 11.368-18.246 1.599-6.2281 2.7118-20.341 1.8686-23.7l-0.52377-2.0868-1.2682 2.4843c-3.8374 7.5172-9.1382 2.7132-9.1083-8.2547 0.0154-5.6772 1.9546-11.974 3.6876-11.974 2.2115 0-1.2037-5.2438-4.905-7.5313-3.074-1.8998-8.0288-1.88-11.143 0.0445-4.2341 2.6168-8.1211 9.4935-10.624 18.794-1.7772 6.6054-1.7573 23.7 0.036 30.975 3.8411 15.581 12.444 23.719 20.611 19.495z" opacity=".97"/>
  <path d="m124.69-647.35c-12.294-6.1436-21.06-22.169-23.471-42.91-2.397-20.621 4.9348-44.539 16.788-54.767 5.9296-5.1165 9.8374-6.6518 16.982-6.672 5.4198-0.0153 6.97 0.28131 10.477 2.0045 10.787 5.3003 19.243 18.641 22.77 35.925 1.5326 7.5099 1.529 22.265-7e-3 30.637l-1.1876 6.4707-3.165 1.2087c-8.9726 3.4267-22.96 15.375-29.636 25.315-1.8522 2.758-3.7348 5.0251-4.1835 5.0382-0.44875 0.013-2.8639-0.9997-5.3671-2.2505zm16.76-14.877c7.43-4.5306 12.247-18.126 12.247-34.564v-8.3741l-1.7101 2.5376c-2.0109 2.984-3.8447 3.5451-5.8009 1.7748-4.3534-3.9398-4.0262-19.144 0.48522-22.551 1.4384-1.0864 0.70673-2.6142-2.9241-6.1064-6.8649-6.6027-15.434-3.2816-20.63 7.9954-3.1917 6.927-4.5926 14.403-4.5926 24.51 0 20.949 7.4118 36.209 17.586 36.209 1.6464 0 4.0489-0.64359 5.3389-1.4302z" opacity=".97"/>
  <path d="m124.66-647.37c-15.659-7.8251-26.208-34.082-23.488-58.464 1.2104-10.851 2.7216-16.306 6.9544-25.107 4.2702-8.8782 9.7981-15.15 16.398-18.606 3.5791-1.874 4.9264-2.1521 10.469-2.1613 8.4871-0.014 13 2.1327 19.702 9.3707 5.5233 5.9657 9.2214 12.91 12.141 22.798 2.7106 9.1809 3.3888 25.311 1.5042 35.777l-1.2768 7.0913-3.1259 1.1962c-8.2834 3.1699-23.979 16.659-30.067 25.841-1.6464 2.4829-3.3606 4.5237-3.8093 4.5351-0.44875 0.0114-2.8797-1.0106-5.402-2.2711zm17.145-15.127c3.6294-2.4318 7.0758-7.9564 9.3666-15.015 1.6557-5.1018 2.0399-7.8904 2.3363-16.957l0.35473-10.851-1.7938 2.6192c-2.2463 3.28-4.6869 3.4596-6.8919 0.50695-2.3571-3.1562-2.6766-13.245-0.57028-18.007 0.84034-1.8997 1.8836-3.454 2.3183-3.454 1.3791 0 0.8622-1.3629-1.5657-4.1281-9.7389-11.092-21.67-2.9718-25.759 17.531-1.877 9.4118-1.2022 24.515 1.4628 32.74 4.5808 14.137 12.979 20.216 20.742 15.015z" opacity=".97"/>
  <ellipse cx="125.64" cy="-669.12" rx="2.6192" ry="5.2385" opacity=".97"/>
  <ellipse cx="227.04" cy="-672.11" rx="2.6192" ry="5.2385" opacity=".97"/>
 </g>
 <g fill="#d4ff2a" fill-opacity=".99517">
  <circle cx="188.07" cy="-696.97" r="111.45" opacity=".97"/>
  <circle cx="188.07" cy="-696.97" r="111.45" opacity=".97"/>
  <circle cx="188.07" cy="-696.97" r="111.45" opacity=".97"/>
  <circle cx="188.07" cy="-696.97" r="111.45" opacity=".97"/>
  <circle cx="188.07" cy="-696.97" r="111.45" opacity=".97"/>
  <circle cx="188.07" cy="-696.97" r="111.45" opacity=".97"/>
  <circle cx="188.07" cy="-696.97" r="111.45" opacity=".97"/>
  <circle cx="188.07" cy="-696.97" r="111.45" opacity=".97"/>
  <circle cx="188.07" cy="-696.97" r="111.45" opacity=".97"/>
  <circle cx="188.07" cy="-696.97" r="111.45" opacity=".97"/>
  <circle cx="188.07" cy="-696.97" r="111.45" opacity=".97"/>
  <circle cx="188.07" cy="-696.97" r="111.45" opacity=".97"/>
  <path d="m330.96-696.97c0 61.553-81.329 111.45-142.88 111.45s-144.38-49.898-144.38-111.45c0-61.553 82.826-111.45 144.38-111.45s142.88 49.898 142.88 111.45z" opacity=".97" stroke="#000" stroke-width=".52917"/>
 </g>
 <g transform="matrix(1 0 0 1.5556 883.22 -660.37)">
  <circle cx="-647.19" cy="-27.032" r="51.858" fill="#d4ff29" opacity=".97"/>
  <circle cx="-647.7" cy="-25.167" r="34.798" fill="#f9f9f9" opacity=".97"/>
 </g>
 <g transform="matrix(1 0 0 1.5556 782.94 -659.25)">
  <circle cx="-647.19" cy="-27.032" r="51.858" fill="#d4ff29" opacity=".97"/>
  <circle cx="-647.7" cy="-25.167" r="34.798" fill="#f9f9f9" opacity=".97"/>
 </g>
 <path d="m87.666-516.87c-18.17 13.716-13.247 22.6-2.2946 22.782 25.895-5.4713 71.844-21.558 104.4-21.307 33.424-1.0031 59.92 5.5658 91.619 18.357 13.389 4.1386 15.62 3.7985 19.371-0.16611 4.884-5.1626-6.4124-17.003-16.093-22.452-33.09-16.053-56.785-23.941-95.061-24.913-30.002 1.2718-65.929 9.0032-101.95 27.699z" fill="#d4ff29" fill-opacity=".97255" stroke="#000" stroke-width=".46358px"/>
 <path d="m91.338-508.41c33.053-10.664 66.105-21.328 98.284-21.047s63.485 11.506 94.791 22.731" fill="none" stroke="#000" stroke-width="1.5875"/>
 <g fill="#d4ff29">
  <ellipse cx="187.75" cy="-587.55" rx="72.216" ry="92.796" opacity=".97" stroke="#000" stroke-width=".52917"/>
  <ellipse cx="200.85" cy="-603.26" rx="3.7418" ry="5.9868" opacity=".97"/>
  <ellipse cx="186.63" cy="-633.94" rx="26.941" ry=".74835" opacity=".97"/>
 </g>
 <ellipse cx="136.12" cy="-696.81" rx="17.586" ry="35.921" opacity=".97"/>
 <ellipse cx="237.52" cy="-699.05" rx="17.586" ry="35.921" opacity=".97"/>
 <ellipse cx="151.83" cy="-705.79" rx="7.1094" ry="13.47" fill-opacity="0" opacity=".97"/>
 <g fill="#fff">
  <ellipse cx="148.46" cy="-711.77" rx="5.9868" ry="12.722" opacity=".97"/>
  <ellipse cx="249.49" cy="-714.02" rx="5.9868" ry="12.722" opacity=".97"/>
  <path d="m240.51-651.25c-6.6934-9.9402-20.615-21.119-31.254-25.096-6.2773-2.3467-6.2485-2.293-7.7137-14.38-2.369-19.543 3.5267-41.153 14.398-52.775 15.349-16.408 35.436-11.666 46.594 10.999 5.0125 10.182 6.5204 16.733 6.9657 30.262 0.28974 8.8016 0.0925 12.704-0.88879 17.586-3.3339 16.589-10.388 28.653-20.577 35.196-1.8299 1.1749-3.682 2.1274-4.1159 2.1168-0.43392-0.0106-1.9676-1.7697-3.4082-3.909zm4.6025-15.237c3.7727-3.649 6.2985-8.539 8.2087-15.892 1.5996-6.1578 2.7013-20.291 1.847-23.695l-0.52234-2.0811-1.2682 2.4843c-2.537 4.9698-5.3217 4.8742-7.8823-0.27071-1.9349-3.8876-1.8639-11.979 0.14502-16.52 0.83635-1.8907 1.8764-3.4377 2.3111-3.4377 3.259 0-3.3691-7.6672-7.6429-8.8411-7.9093-2.1725-15.132 5.4373-19.045 20.066-1.9359 7.237-1.7356 24.567 0.37322 32.295 2.0054 7.3485 4.6433 12.517 8.0085 15.691 3.4756 3.2782 4.5262 3.6781 8.8545 3.3696 2.9939-0.21336 4.1109-0.74855 6.6128-3.1683z" opacity=".97"/>
  <path d="m239.69-652.37c-8.3994-10.735-20.671-20.335-30.853-24.134-5.8867-2.1969-5.9629-2.3543-7.3623-15.211-2.7392-25.165 7.7401-51.077 23.868-59.017 13.755-6.7718 28.558 0.49652 37.202 18.267 5.6743 11.665 6.6664 16.575 6.6954 33.136 0.0235 13.443-0.0879 14.586-2.0437 20.954-2.9392 9.5697-6.6866 16.734-11.583 22.145-3.717 4.1074-9.8832 8.912-11.438 8.912-0.29345 0-2.3121-2.2731-4.4858-5.0514zm2.245-11.748c4.9136-2.5409 9.0339-9.1541 11.368-18.246 1.599-6.2281 2.7118-20.341 1.8686-23.7l-0.52377-2.0868-1.2682 2.4843c-3.8374 7.5172-9.1382 2.7132-9.1083-8.2547 0.0154-5.6772 1.9546-11.974 3.6876-11.974 2.2115 0-1.2037-5.2438-4.905-7.5313-3.074-1.8998-8.0288-1.88-11.143 0.0445-4.2341 2.6168-8.1211 9.4935-10.624 18.794-1.7772 6.6054-1.7573 23.7 0.036 30.975 3.8411 15.581 12.444 23.719 20.611 19.495z" opacity=".97"/>
  <path d="m124.69-647.35c-12.294-6.1436-21.06-22.169-23.471-42.91-2.397-20.621 4.9348-44.539 16.788-54.767 5.9296-5.1165 9.8374-6.6518 16.982-6.672 5.4198-0.0153 6.97 0.28131 10.477 2.0045 10.787 5.3003 19.243 18.641 22.77 35.925 1.5326 7.5099 1.529 22.265-7e-3 30.637l-1.1876 6.4707-3.165 1.2087c-8.9726 3.4267-22.96 15.375-29.636 25.315-1.8522 2.758-3.7348 5.0251-4.1835 5.0382-0.44875 0.013-2.8639-0.9997-5.3671-2.2505zm16.76-14.877c7.43-4.5306 12.247-18.126 12.247-34.564v-8.3741l-1.7101 2.5376c-2.0109 2.984-3.8447 3.5451-5.8009 1.7748-4.3534-3.9398-4.0262-19.144 0.48522-22.551 1.4384-1.0864 0.70673-2.6142-2.9241-6.1064-6.8649-6.6027-15.434-3.2816-20.63 7.9954-3.1917 6.927-4.5926 14.403-4.5926 24.51 0 20.949 7.4118 36.209 17.586 36.209 1.6464 0 4.0489-0.64359 5.3389-1.4302z" opacity=".97"/>
  <path d="m124.66-647.37c-15.659-7.8251-26.208-34.082-23.488-58.464 1.2104-10.851 2.7216-16.306 6.9544-25.107 4.2702-8.8782 9.7981-15.15 16.398-18.606 3.5791-1.874 4.9264-2.1521 10.469-2.1613 8.4871-0.014 13 2.1327 19.702 9.3707 5.5233 5.9657 9.2214 12.91 12.141 22.798 2.7106 9.1809 3.3888 25.311 1.5042 35.777l-1.2768 7.0913-3.1259 1.1962c-8.2834 3.1699-23.979 16.659-30.067 25.841-1.6464 2.4829-3.3606 4.5237-3.8093 4.5351-0.44875 0.0114-2.8797-1.0106-5.402-2.2711zm17.145-15.127c3.6294-2.4318 7.0758-7.9564 9.3666-15.015 1.6557-5.1018 2.0399-7.8904 2.3363-16.957l0.35473-10.851-1.7938 2.6192c-2.2463 3.28-4.6869 3.4596-6.8919 0.50695-2.3571-3.1562-2.6766-13.245-0.57028-18.007 0.84034-1.8997 1.8836-3.454 2.3183-3.454 1.3791 0 0.8622-1.3629-1.5657-4.1281-9.7389-11.092-21.67-2.9718-25.759 17.531-1.877 9.4118-1.2022 24.515 1.4628 32.74 4.5808 14.137 12.979 20.216 20.742 15.015z" opacity=".97"/>
  <ellipse cx="125.64" cy="-669.12" rx="2.6192" ry="5.2385" opacity=".97"/>
  <ellipse cx="227.04" cy="-672.11" rx="2.6192" ry="5.2385" opacity=".97"/>
 </g>
 <g stroke="#000" stroke-width="1.5875">
  <path d="m-744.54-160.73s-14.397 1.5875-32.808 1.5875-34.925-1.5875-34.925-1.5875c0-18.412 12.28-47.096 30.692-47.096s34.423 28.871 37.042 47.096z" fill="#d4ff29" opacity=".97"/>
  <path d="m-645.64-160.2s-14.397 1.5875-32.808 1.5875-34.925-1.5875-34.925-1.5875c0-18.412 14.397-56.621 32.808-56.621s32.306 38.396 34.925 56.621z" fill="#d4ff29" opacity=".97"/>
  <path d="m-797.24-211.71c6.5942 0.16059 13.191 0.16535 19.787 0.19308 8.309-0.0806 16.633 0.23513 24.93-0.31996 0.76028-0.0716 1.5206-0.14323 2.2809-0.21485l-6.0854 4.4946c-0.73641 0.0459-1.4728 0.0919-2.2092 0.13782-8.2307 0.30927-16.47-5e-3 -24.705 0.10798-6.7729 0.0281-13.547 0.0358-20.318 0.19308l6.32-4.5918z" opacity=".97"/>
  <path d="m-703.86-217.82c1.0892-1.1438 2.3366-2.1052 3.7073-2.8884 8.0233-4.5847 5.1352-3.3969 9.3264-5.0049 3.4184-1.0698 7.0178-1.1628 10.567-1.2641 2.626-0.0215 5.2652 0.32889 7.7796 1.0991 0.93102 0.28521 2.7317 0.98647 3.6396 1.3313 4.2095 1.7896 8.1746 4.1148 12.157 6.3555 2.7081 1.5641 5.4799 3.0134 8.2054 4.5455l-6.4771 4.2046c-2.6538-1.5878-5.3525-3.098-8.0282-4.6486-3.9691-2.2287-7.9605-4.473-12.176-6.2034-1.0695-0.39584-2.4914-0.94573-3.5925-1.2603-2.4833-0.7095-5.0732-0.98945-7.6509-0.92804-3.5278 0.13913-7.1141 0.28825-10.463 1.5243-3.3284 1.444-1.5678 0.74793 3.9087-2.5228 0.38719-0.23123-0.7933 0.43001-1.178 0.6654-0.90693 0.55498-1.7711 1.1872-2.4742 1.9912l-7.2513 3.0036z" opacity=".97"/>
 </g>
 <g fill="#d4ff2a" fill-opacity=".99517">
  <ellipse cx="103.87" cy="60.501" rx="54.08" ry="33.408" opacity=".97"/>
  <ellipse cx="103.87" cy="60.501" rx="54.08" ry="33.408" opacity=".97"/>
  <ellipse cx="103.87" cy="60.501" rx="54.08" ry="33.408" opacity=".97"/>
  <ellipse cx="103.87" cy="60.501" rx="54.08" ry="33.408" opacity=".97"/>
  <ellipse cx="103.87" cy="60.501" rx="54.08" ry="33.408" opacity=".97"/>
  <ellipse cx="103.87" cy="60.501" rx="54.08" ry="33.408" opacity=".97"/>
  <ellipse cx="103.87" cy="60.501" rx="54.08" ry="33.408" opacity=".97"/>
  <ellipse cx="103.87" cy="60.501" rx="54.08" ry="33.408" opacity=".97"/>
  <ellipse cx="103.87" cy="60.501" rx="54.08" ry="33.408" opacity=".97"/>
  <ellipse cx="103.87" cy="60.501" rx="54.08" ry="33.408" opacity=".97"/>
  <ellipse cx="103.87" cy="60.501" rx="54.08" ry="33.408" opacity=".97"/>
  <ellipse cx="103.87" cy="60.501" rx="54.08" ry="33.408" opacity=".97"/>
  <path d="m173.2 60.501c0 18.451-39.464 33.408-69.332 33.408-29.868 0-70.058-14.957-70.058-33.408 0-18.451 40.19-33.408 70.058-33.408 29.868 0 69.332 14.957 69.332 33.408z" opacity=".97" stroke="#000" stroke-width=".20181"/>
 </g>
 <g transform="matrix(.48524 0 0 .46629 441.18 71.471)">
  <circle cx="-647.19" cy="-27.032" r="51.858" fill="#d4ff29" opacity=".97"/>
  <circle cx="-647.7" cy="-25.167" r="34.798" fill="#f9f9f9" opacity=".97"/>
 </g>
 <g transform="matrix(.48524 0 0 .46629 392.52 71.808)">
  <circle cx="-647.19" cy="-27.032" r="51.858" fill="#d4ff29" opacity=".97"/>
  <circle cx="-647.7" cy="-25.167" r="34.798" fill="#f9f9f9" opacity=".97"/>
 </g>
 <path d="m55.149 114.48c-8.8167 4.1115-6.428 6.7744-1.1134 6.829 12.565-1.64 34.861-6.4622 50.661-6.3868 16.219-0.3007 29.075 1.6683 44.457 5.5025 6.4967 1.2406 7.5796 1.1386 9.3996-0.0498 2.3699-1.5475-3.1115-5.0968-7.809-6.73-16.057-4.8119-27.554-7.1764-46.127-7.4676-14.558 0.38123-31.991 2.6988-49.468 8.3029z" fill="#d4ff29" fill-opacity=".97255" stroke="#000" stroke-width=".1768px"/>
 <path d="m56.93 117.02c16.038-3.1966 32.077-6.3932 47.691-6.3091 15.615 0.0841 30.805 3.449 45.996 6.8138" fill="none" stroke="#000" stroke-width=".60544"/>
 <g fill="#d4ff29">
  <ellipse cx="103.71" cy="93.3" rx="35.042" ry="27.816" opacity=".97" stroke="#000" stroke-width=".20181"/>
  <ellipse cx="110.07" cy="88.589" rx="1.8156" ry="1.7946" opacity=".97"/>
  <ellipse cx="103.17" cy="79.392" rx="13.073" ry=".22432" opacity=".97"/>
 </g>
 <ellipse cx="78.658" cy="60.549" rx="8.5335" ry="10.767" opacity=".97"/>
 <ellipse cx="127.86" cy="59.876" rx="8.5335" ry="10.767" opacity=".97"/>
 <ellipse cx="86.284" cy="57.857" rx="3.4497" ry="4.0378" fill-opacity="0" opacity=".97"/>
 <g fill="#fff">
  <ellipse cx="84.65" cy="56.062" rx="2.905" ry="3.8135" opacity=".97"/>
  <ellipse cx="133.67" cy="55.389" rx="2.905" ry="3.8135" opacity=".97"/>
  <path d="m129.31 74.205c-3.2479-2.9796-10.003-6.3305-15.166-7.5227-3.046-0.70343-3.032-0.68733-3.743-4.3104-1.1495-5.8581 1.7113-12.336 6.9865-15.819 7.4479-4.9184 17.195-3.497 22.609 3.2971 2.4323 3.0521 3.1639 5.0157 3.38 9.071 0.14059 2.6383 0.0449 3.8079-0.43128 5.2716-1.6177 4.9725-5.0405 8.589-9.9848 10.55-0.88791 0.35216-1.7867 0.63771-1.9972 0.63452-0.21055-0.0034-0.95475-0.53047-1.6538-1.1718zm2.2333-4.5672c1.8307-1.0938 3.0563-2.5596 3.9832-4.7638 0.77619-1.8458 1.3108-6.0823 0.89625-7.1026l-0.25347-0.6238-0.61538 0.74468c-1.2311 1.4897-2.5823 1.4611-3.8248-0.0811-0.93888-1.1653-0.90442-3.5906 0.0703-4.9519 0.40584-0.56675 0.91047-1.0305 1.1214-1.0305 1.5814 0-1.6348-2.2983-3.7086-2.6502-3.8379-0.6512-7.3425 1.6299-9.2414 6.015-0.93935 2.1693-0.84218 7.364 0.18111 9.6804 0.97308 2.2028 2.2531 3.752 3.886 4.7035 1.6865 0.98268 2.1963 1.1025 4.2965 1.0101 1.4528-0.06402 1.9948-0.22439 3.2088-0.94974z" opacity=".97"/>
  <path d="m128.92 73.868c-4.0757-3.2179-10.03-6.0955-14.971-7.2344-2.8564-0.65853-2.8934-0.70573-3.5725-4.5595-1.3291-7.5434 3.7558-15.311 11.581-17.69 6.6746-2.0299 13.857 0.14884 18.052 5.4756 2.7534 3.4966 3.2348 4.9684 3.2489 9.9326 0.0114 4.0297-0.0427 4.3722-0.99168 6.281-1.4262 2.8686-3.2446 5.0161-5.6205 6.638-1.8036 1.2312-4.7957 2.6714-5.55 2.6714-0.1424 0-1.1219-0.68138-2.1767-1.5142zm1.0894-3.5216c2.3842-0.76165 4.3836-2.744 5.5163-5.4694 0.77592-1.8669 1.3159-6.0973 0.90674-7.1042l-0.25415-0.62554-0.61538 0.74468c-1.8621 2.2533-4.4342 0.81331-4.4197-2.4744 7e-3 -1.7018 0.94846-3.5892 1.7894-3.5892 1.0731 0-0.58408-1.5718-2.3801-2.2575-1.4916-0.56948-3.8958-0.56355-5.4069 0.01335-2.0545 0.78441-3.9407 2.8457-5.155 5.6337-0.86238 1.98-0.85273 7.1041 0.0175 9.2848 1.8638 4.6706 6.0384 7.1098 10.001 5.8439z" opacity=".97"/>
  <path d="m73.116 75.374c-5.9657-1.8416-10.219-6.6452-11.389-12.862-1.1631-6.1812 2.3946-13.351 8.1462-16.417 2.8773-1.5337 4.7735-1.9939 8.2401-2 2.6299-0.0034 3.3821 0.08438 5.0838 0.60085 5.2344 1.5888 9.3375 5.5878 11.049 10.769 0.74366 2.2511 0.74193 6.6741-0.0033 9.1835l-0.57625 1.9396-1.5358 0.36233c-4.3539 1.0272-11.141 4.6086-14.38 7.5883-0.89873 0.82672-1.8122 1.5063-2.03 1.5102-0.21775 0.0034-1.3897-0.29966-2.6043-0.6746zm8.1327-4.4595c3.6053-1.3581 5.9429-5.4334 5.9429-10.361v-2.5102l-0.82981 0.76069c-0.97578 0.89448-1.8656 1.0626-2.8148 0.53198-2.1124-1.181-1.9537-5.7385 0.23544-6.7599 0.69795-0.32565 0.34294-0.78361-1.4189-1.8304-3.3311-1.9792-7.4892-0.98367-10.011 2.3967-1.5487 2.0764-2.2285 4.3175-2.2285 7.3469 0 6.2794 3.5965 10.854 8.5335 10.854 0.79888 0 1.9647-0.19292 2.5906-0.42871z" opacity=".97"/>
  <path d="m73.099 75.369c-7.5986-2.3456-12.717-10.216-11.397-17.525 0.58736-3.2525 1.3206-4.8878 3.3745-7.5258 2.0721-2.6613 4.7544-4.5413 7.9572-5.5772 1.7367-0.56174 2.3905-0.64511 5.0799-0.64787 4.1183-0.0034 6.3083 0.63927 9.56 2.8089 2.6801 1.7882 4.4746 3.8698 5.8912 6.8338 1.3153 2.752 1.6444 7.587 0.7299 10.724l-0.61955 2.1257-1.5168 0.35856c-4.0194 0.9502-11.635 4.9936-14.589 7.7458-0.79888 0.74428-1.6307 1.356-1.8484 1.3594-0.21774 0.0034-1.3973-0.30295-2.6213-0.68076zm8.3196-4.5345c1.7611-0.72891 3.4334-2.385 4.545-4.5008 0.80341-1.5293 0.98985-2.3652 1.1337-5.0829l0.17213-3.2527-0.87041 0.78512c-1.09 0.98321-2.2742 1.037-3.3442 0.15195-1.1438-0.94609-1.2988-3.9703-0.27672-5.3976 0.40777-0.56945 0.91399-1.0354 1.1249-1.0354 0.66919 0 0.41837-0.40854-0.75974-1.2374-4.7257-3.3249-10.515-0.8908-12.499 5.2551-0.91079 2.8212-0.58334 7.3485 0.70979 9.8138 2.2228 4.2377 6.2977 6.06 10.065 4.5008z" opacity=".97"/>
  <ellipse cx="73.574" cy="68.849" rx="1.271" ry="1.5703" opacity=".97"/>
  <ellipse cx="202.04" cy="58.761" rx="1.271" ry="1.5703" opacity=".97"/>
  <ellipse cx="122.78" cy="67.951" rx="1.271" ry="1.5703" opacity=".97"/>
 </g>
 <g fill="#d4ff2a" fill-opacity=".99517">
  <ellipse cx="103.87" cy="60.501" rx="54.08" ry="33.408" opacity=".97"/>
  <ellipse cx="103.87" cy="60.501" rx="54.08" ry="33.408" opacity=".97"/>
  <ellipse cx="103.87" cy="60.501" rx="54.08" ry="33.408" opacity=".97"/>
  <ellipse cx="103.87" cy="60.501" rx="54.08" ry="33.408" opacity=".97"/>
  <ellipse cx="103.87" cy="60.501" rx="54.08" ry="33.408" opacity=".97"/>
  <ellipse cx="103.87" cy="60.501" rx="54.08" ry="33.408" opacity=".97"/>
  <ellipse cx="103.87" cy="60.501" rx="54.08" ry="33.408" opacity=".97"/>
  <ellipse cx="103.87" cy="60.501" rx="54.08" ry="33.408" opacity=".97"/>
  <ellipse cx="103.87" cy="60.501" rx="54.08" ry="33.408" opacity=".97"/>
  <ellipse cx="103.87" cy="60.501" rx="54.08" ry="33.408" opacity=".97"/>
  <ellipse cx="103.87" cy="60.501" rx="54.08" ry="33.408" opacity=".97"/>
  <ellipse cx="103.87" cy="60.501" rx="54.08" ry="33.408" opacity=".97"/>
  <path d="m173.2 60.501c0 18.451-39.464 33.408-69.332 33.408-29.868 0-70.058-14.957-70.058-33.408 0-18.451 40.19-33.408 70.058-33.408 29.868 0 69.332 14.957 69.332 33.408z" opacity=".97" stroke="#000" stroke-width=".20181"/>
 </g>
 <g transform="matrix(.48524 0 0 .46629 441.18 71.471)">
  <circle cx="-647.19" cy="-27.032" r="51.858" fill="#d4ff29" opacity=".97"/>
  <circle cx="-647.7" cy="-25.167" r="34.798" fill="#f9f9f9" opacity=".97"/>
 </g>
 <g transform="matrix(.48524 0 0 .46629 392.52 71.808)">
  <circle cx="-647.19" cy="-27.032" r="51.858" fill="#d4ff29" opacity=".97"/>
  <circle cx="-647.7" cy="-25.167" r="34.798" fill="#f9f9f9" opacity=".97"/>
 </g>
 <g stroke="#000">
  <path d="m55.149 114.48c-8.8167 4.1115-6.428 6.7744-1.1134 6.829 12.565-1.64 34.861-6.4622 50.661-6.3868 16.219-0.3007 29.075 1.6683 44.457 5.5025 6.4967 1.2406 7.5796 1.1386 9.3996-0.0498 2.3699-1.5475-3.1115-5.0968-7.809-6.73-16.057-4.8119-27.554-7.1764-46.127-7.4676-14.558 0.38123-31.991 2.6988-49.468 8.3029z" fill="#d4ff29" fill-opacity=".97255" stroke-width=".1768px"/>
  <g>
   <path d="m56.93 117.02c16.038-3.1966 32.077-6.3932 47.691-6.3091 15.615 0.0841 30.805 3.449 45.996 6.8138" fill="none" stroke-width=".60544"/>
   <path d="m172.63 178.1c7.6361 5.556 16.791 13.149 25.056 22.432 0 0-19.474 27.793-36.676 38.808 1.3229 3.242 2.7964 6.453 9.8045 8.5243 5.1831 1.4284 9.1602-0.86846 13.436-2.2432-0.79305 6.2462-5.8673 11.699-16.341 16.151-7.9926-2.663-14.569-5.654-14.888-10.094-0.27324-5.2342 0.1556-10.468 1.8157-15.703l23.24-32.751c-8.0045-5.3274-14.141-11.424-19.246-17.946z" fill="#d4ff29" fill-opacity=".97255" stroke-width=".40363"/>
   <path d="m145.39 156.57 35.224 22.208c-5.1155 5.738-14.049 9.1173-23.967 11.889l-11.257-16.151z" fill="#f60" opacity=".97" stroke-width=".60544"/>
   <path d="m37.968 178.1c-7.6361 5.556-16.791 13.149-25.056 22.432 0 0 19.474 27.793 36.676 38.808-1.3229 3.242-2.7964 6.453-9.8045 8.5243-5.1831 1.4284-9.1602-0.86846-13.436-2.2432 0.79307 6.2462 5.8673 11.699 16.341 16.151 7.9926-2.663 14.569-5.654 14.888-10.094 0.27326-5.2342-0.15558-10.468-1.8157-15.703l-23.24-32.751c8.0045-5.3274 14.141-11.424 19.246-17.946z" fill="#d4ff29" fill-opacity=".97255" stroke-width=".40363"/>
   <path d="m27.014 178.1 39.944-21.535v17.946l-13.436 16.151c-11.556-2.843-19.777-7.3345-26.508-12.562z" fill="#f60" opacity=".97" stroke-width=".60544"/>
   <path d="m66.958 156.57c-3.2198 1.2631 26.523-13.249 78.436 0l9.4414 79.41c-33.707 3.2558-67.119 3.9673-99.861-1.1216z" fill="#f60" opacity=".97" stroke-width=".60544"/>
  </g>
 </g>
 <g fill="#d4ff29">
  <path d="m93.008 115.42h24.907l0.51355 51.869c-2.4562 5.0056-7.3854 7.4651-12.71 9.5172-7.9613-2.4093-11.513-5.5969-12.71-9.2z" opacity=".97" stroke="#000" stroke-width=".60544"/>
  <ellipse cx="103.71" cy="93.3" rx="35.042" ry="27.816" opacity=".97" stroke="#000" stroke-width=".20181"/>
  <ellipse cx="110.07" cy="88.589" rx="1.8156" ry="1.7946" opacity=".97"/>
  <ellipse cx="103.17" cy="79.392" rx="13.073" ry=".22432" opacity=".97"/>
 </g>
 <ellipse cx="78.658" cy="60.549" rx="8.5335" ry="10.767" opacity=".97"/>
 <ellipse cx="127.86" cy="59.876" rx="8.5335" ry="10.767" opacity=".97"/>
 <ellipse cx="86.284" cy="57.857" rx="3.4497" ry="4.0378" fill-opacity="0" opacity=".97"/>
 <g fill="#fff">
  <ellipse cx="84.65" cy="56.062" rx="2.905" ry="3.8135" opacity=".97"/>
  <ellipse cx="133.67" cy="55.389" rx="2.905" ry="3.8135" opacity=".97"/>
  <path d="m129.31 74.205c-3.2479-2.9796-10.003-6.3305-15.166-7.5227-3.046-0.70343-3.032-0.68733-3.743-4.3104-1.1495-5.8581 1.7113-12.336 6.9865-15.819 7.4479-4.9184 17.195-3.497 22.609 3.2971 2.4323 3.0521 3.1639 5.0157 3.38 9.071 0.14059 2.6383 0.0449 3.8079-0.43128 5.2716-1.6177 4.9725-5.0405 8.589-9.9848 10.55-0.88791 0.35216-1.7867 0.63771-1.9972 0.63452-0.21055-0.0034-0.95475-0.53047-1.6538-1.1718zm2.2333-4.5672c1.8307-1.0938 3.0563-2.5596 3.9832-4.7638 0.77619-1.8458 1.3108-6.0823 0.89625-7.1026l-0.25347-0.6238-0.61538 0.74468c-1.2311 1.4897-2.5823 1.4611-3.8248-0.0811-0.93888-1.1653-0.90442-3.5906 0.0703-4.9519 0.40584-0.56675 0.91047-1.0305 1.1214-1.0305 1.5814 0-1.6348-2.2983-3.7086-2.6502-3.8379-0.6512-7.3425 1.6299-9.2414 6.015-0.93935 2.1693-0.84218 7.364 0.18111 9.6804 0.97308 2.2028 2.2531 3.752 3.886 4.7035 1.6865 0.98268 2.1963 1.1025 4.2965 1.0101 1.4528-0.06402 1.9948-0.22439 3.2088-0.94974z" opacity=".97"/>
  <path d="m128.92 73.868c-4.0757-3.2179-10.03-6.0955-14.971-7.2344-2.8564-0.65853-2.8934-0.70573-3.5725-4.5595-1.3291-7.5434 3.7558-15.311 11.581-17.69 6.6746-2.0299 13.857 0.14884 18.052 5.4756 2.7534 3.4966 3.2348 4.9684 3.2489 9.9326 0.0114 4.0297-0.0427 4.3722-0.99168 6.281-1.4262 2.8686-3.2446 5.0161-5.6205 6.638-1.8036 1.2312-4.7957 2.6714-5.55 2.6714-0.1424 0-1.1219-0.68138-2.1767-1.5142zm1.0894-3.5216c2.3842-0.76165 4.3836-2.744 5.5163-5.4694 0.77592-1.8669 1.3159-6.0973 0.90674-7.1042l-0.25415-0.62554-0.61538 0.74468c-1.8621 2.2533-4.4342 0.81331-4.4197-2.4744 7e-3 -1.7018 0.94846-3.5892 1.7894-3.5892 1.0731 0-0.58408-1.5718-2.3801-2.2575-1.4916-0.56948-3.8958-0.56355-5.4069 0.01335-2.0545 0.78441-3.9407 2.8457-5.155 5.6337-0.86238 1.98-0.85273 7.1041 0.0175 9.2848 1.8638 4.6706 6.0384 7.1098 10.001 5.8439z" opacity=".97"/>
  <path d="m73.116 75.374c-5.9657-1.8416-10.219-6.6452-11.389-12.862-1.1631-6.1812 2.3946-13.351 8.1462-16.417 2.8773-1.5337 4.7735-1.9939 8.2401-2 2.6299-0.0034 3.3821 0.08438 5.0838 0.60085 5.2344 1.5888 9.3375 5.5878 11.049 10.769 0.74366 2.2511 0.74193 6.6741-0.0033 9.1835l-0.57625 1.9396-1.5358 0.36233c-4.3539 1.0272-11.141 4.6086-14.38 7.5883-0.89873 0.82672-1.8122 1.5063-2.03 1.5102-0.21775 0.0034-1.3897-0.29966-2.6043-0.6746zm8.1327-4.4595c3.6053-1.3581 5.9429-5.4334 5.9429-10.361v-2.5102l-0.82981 0.76069c-0.97578 0.89448-1.8656 1.0626-2.8148 0.53198-2.1124-1.181-1.9537-5.7385 0.23544-6.7599 0.69795-0.32565 0.34294-0.78361-1.4189-1.8304-3.3311-1.9792-7.4892-0.98367-10.011 2.3967-1.5487 2.0764-2.2285 4.3175-2.2285 7.3469 0 6.2794 3.5965 10.854 8.5335 10.854 0.79888 0 1.9647-0.19292 2.5906-0.42871z" opacity=".97"/>
  <path d="m73.099 75.369c-7.5986-2.3456-12.717-10.216-11.397-17.525 0.58736-3.2525 1.3206-4.8878 3.3745-7.5258 2.0721-2.6613 4.7544-4.5413 7.9572-5.5772 1.7367-0.56174 2.3905-0.64511 5.0799-0.64787 4.1183-0.0034 6.3083 0.63927 9.56 2.8089 2.6801 1.7882 4.4746 3.8698 5.8912 6.8338 1.3153 2.752 1.6444 7.587 0.7299 10.724l-0.61955 2.1257-1.5168 0.35856c-4.0194 0.9502-11.635 4.9936-14.589 7.7458-0.79888 0.74428-1.6307 1.356-1.8484 1.3594-0.21774 0.0034-1.3973-0.30295-2.6213-0.68076zm8.3196-4.5345c1.7611-0.72891 3.4334-2.385 4.545-4.5008 0.80341-1.5293 0.98985-2.3652 1.1337-5.0829l0.17213-3.2527-0.87041 0.78512c-1.09 0.98321-2.2742 1.037-3.3442 0.15195-1.1438-0.94609-1.2988-3.9703-0.27672-5.3976 0.40777-0.56945 0.91399-1.0354 1.1249-1.0354 0.66919 0 0.41837-0.40854-0.75974-1.2374-4.7257-3.3249-10.515-0.8908-12.499 5.2551-0.91079 2.8212-0.58334 7.3485 0.70979 9.8138 2.2228 4.2377 6.2977 6.06 10.065 4.5008z" opacity=".97"/>
  <ellipse cx="73.574" cy="68.849" rx="1.271" ry="1.5703" opacity=".97"/>
  <ellipse cx="122.78" cy="67.951" rx="1.271" ry="1.5703" opacity=".97"/>
 </g>
 <g stroke="#000" stroke-width=".60544">
  <path d="m95.319 57.045s-6.9857 0.47585-15.92 0.47585c-8.9341 0-16.947-0.47585-16.947-0.47585 0-5.519 5.9587-14.117 14.893-14.117 8.9341 0 16.703 8.6543 17.974 14.117z" fill="#d4ff29" opacity=".97"/>
  <path d="m143.31 57.204s-6.9857 0.47585-15.92 0.47585-16.947-0.47585-16.947-0.47585c0-5.519 6.9858-16.972 15.92-16.972 8.9341 0 15.676 11.509 16.947 16.972z" fill="#d4ff29" opacity=".97"/>
  <path d="m69.747 41.764c3.1997 0.04818 6.4008 0.04954 9.6013 0.0578 4.0319-0.02409 8.071 0.07058 12.097-0.0958 0.36892-0.02149 0.73784-0.04287 1.1068-0.06436l-2.9529 1.3473c-0.35735 0.0138-0.71468 0.02748-1.072 0.0414-3.9938 0.09264-7.9921-9.16e-4 -11.988 0.03246-3.2865 9e-3 -6.5735 0.01131-9.8593 0.0578l3.0667-1.3764z" opacity=".97"/>
  <path d="m115.06 39.934c0.52853-0.34285 1.1338-0.63105 1.7989-0.86583 3.8932-1.3743 2.4918-1.0182 4.5255-1.5002 1.6587-0.32069 3.4053-0.34854 5.1277-0.37893 1.2742-0.0068 2.5549 0.09863 3.775 0.32947 0.45176 0.08551 1.3255 0.2957 1.766 0.39908 2.0426 0.53642 3.9666 1.2334 5.8989 1.9051 1.3141 0.46885 2.659 0.90328 3.9816 1.3625l-3.143 1.2604c-1.2877-0.47594-2.5972-0.92863-3.8956-1.3934-1.9259-0.66805-3.8627-1.3408-5.9084-1.8595-0.51898-0.11868-1.2089-0.28349-1.7432-0.37779-1.205-0.21266-2.4617-0.2966-3.7125-0.27818-1.7118 0.04162-3.452 0.08653-5.0768 0.45691-1.6151 0.43283-0.76077 0.2242 1.8967-0.75622 0.18788-0.06922-0.38494 0.12891-0.57159 0.19945-0.44009 0.16636-0.85941 0.35588-1.2006 0.59688 0 0-3.5186 0.90034-3.5186 0.90034z" opacity=".97"/>
 </g>
</svg>
